<svg width="14" height="16" viewBox="0 0 14 16" fill="none" xmlns="http://www.w3.org/2000/svg">
<path d="M7 14.4616L7 1.53849" stroke="#616161" stroke-width="2" stroke-linecap="round"/>
<path d="M7 14.4073L6.29289 15.1144C6.68342 15.5049 7.31658 15.5049 7.70711 15.1144L7 14.4073ZM13.7071 9.11438C14.0976 8.72385 14.0976 8.09069 13.7071 7.70017C13.3166 7.30964 12.6834 7.30964 12.2929 7.70017L13.7071 9.11438ZM1.70711 7.70017C1.31658 7.30964 0.683418 7.30964 0.292893 7.70017C-0.0976311 8.09069 -0.0976311 8.72385 0.292893 9.11438L1.70711 7.70017ZM7.70711 15.1144L13.7071 9.11438L12.2929 7.70017L6.29289 13.7002L7.70711 15.1144ZM7.70711 13.7002L1.70711 7.70017L0.292893 9.11438L6.29289 15.1144L7.70711 13.7002Z" fill="#616161"/>
</svg>
