<svg width="18" height="15" viewBox="0 0 18 15" fill="none" xmlns="http://www.w3.org/2000/svg">
<path d="M17.5645 3.07395C17.2852 2.47242 16.8825 1.92731 16.379 1.46915C15.875 1.00962 15.2808 0.644437 14.6288 0.393462C13.9526 0.132183 13.2274 -0.001554 12.4952 1.36232e-05C11.468 1.36232e-05 10.4658 0.261667 9.59485 0.7559C9.38649 0.874129 9.18855 1.00399 9.00103 1.14547C8.81351 1.00399 8.61557 0.874129 8.40721 0.7559C7.53628 0.261667 6.53408 1.36232e-05 5.50688 1.36232e-05C4.76721 1.36232e-05 4.05046 0.131809 3.3733 0.393462C2.71906 0.645424 2.12941 1.00786 1.6231 1.46915C1.11887 1.92679 0.716078 2.47203 0.43755 3.07395C0.147934 3.69998 0 4.36477 0 5.04895C0 5.69436 0.141683 6.3669 0.422965 7.05108C0.658409 7.62284 0.995947 8.21592 1.42725 8.81481C2.11066 9.76258 3.05035 10.751 4.21715 11.7531C6.1507 13.4141 8.06551 14.5615 8.14677 14.608L8.64057 14.9026C8.85935 15.0325 9.14063 15.0325 9.35941 14.9026L9.85321 14.608C9.93447 14.5596 11.8472 13.4141 13.7828 11.7531C14.9496 10.751 15.8893 9.76258 16.5727 8.81481C17.004 8.21592 17.3437 7.62284 17.577 7.05108C17.8583 6.3669 18 5.69436 18 5.04895C18.0021 4.36477 17.8541 3.69998 17.5645 3.07395V3.07395Z" fill="#616161"/>
</svg>
