<svg width="127" height="23" viewBox="0 0 127 23" fill="none" xmlns="http://www.w3.org/2000/svg">
<circle cx="121.927" cy="12.2254" r="4.55627" fill="white"/>
<path d="M0 22.2492V0.787322H8.54392C9.166 0.787322 9.7978 0.874802 10.4393 1.04976C11.1003 1.22472 11.7127 1.54549 12.2764 2.01205C12.8402 2.47861 13.2873 3.16873 13.6178 4.08242C13.9677 4.97666 14.1427 6.16251 14.1427 7.63995C14.1427 9.13684 13.958 10.3518 13.5886 11.285C13.2387 12.2181 12.7721 12.9374 12.1889 13.4428C11.6252 13.9288 11.0128 14.2593 10.3518 14.4343C9.69088 14.6092 9.04936 14.6967 8.42728 14.6967C8.13568 14.6967 7.70799 14.687 7.14423 14.6675C6.58047 14.6481 5.97783 14.6287 5.3363 14.6092C4.71422 14.5703 4.13102 14.5315 3.5867 14.4926C3.04237 14.4537 2.62441 14.4245 2.33281 14.4051V22.2492H0ZM2.33281 12.6263H8.13567C8.81608 12.6263 9.42844 12.4805 9.97276 12.1889C10.5365 11.8973 10.9836 11.3919 11.3141 10.6726C11.6446 9.95332 11.8098 8.95216 11.8098 7.66911C11.8098 6.40551 11.6446 5.4335 11.3141 4.7531C11.0031 4.05326 10.5851 3.56725 10.0602 3.29509C9.53536 3.02293 8.96188 2.88685 8.3398 2.88685H2.33281V12.6263Z" fill="white"/>
<path d="M17.5694 22.2492V0H19.8731V8.39812C20.5924 7.89267 21.4477 7.43583 22.4392 7.02759C23.4501 6.61935 24.4998 6.41523 25.5885 6.41523C26.6771 6.41523 27.5714 6.65823 28.2712 7.14423C28.9905 7.61079 29.5154 8.24259 29.8458 9.03964C30.1958 9.81724 30.3707 10.6823 30.3707 11.6349V22.2492H28.0671V11.8973C28.0671 10.9253 27.7755 10.1186 27.1923 9.47704C26.6091 8.83552 25.8217 8.51476 24.8303 8.51476C23.8194 8.51476 22.9446 8.65084 22.2059 8.923C21.4672 9.19516 20.6896 9.56452 19.8731 10.0311V22.2492H17.5694Z" fill="white"/>
<path d="M40.8943 22.4241C39.378 22.4241 38.1241 22.2103 37.1327 21.7826C36.1412 21.3355 35.3928 20.5384 34.8874 19.3915C34.4014 18.2251 34.1584 16.5727 34.1584 14.4343C34.1584 12.8013 34.2944 11.4696 34.5666 10.4393C34.8582 9.38956 35.2762 8.5828 35.8205 8.01903C36.3842 7.43583 37.0841 7.03731 37.92 6.82347C38.7754 6.59019 39.7668 6.47355 40.8943 6.47355C42.3912 6.47355 43.6354 6.68739 44.6268 7.11507C45.6377 7.54275 46.3959 8.33008 46.9013 9.47704C47.4068 10.624 47.6595 12.2764 47.6595 14.4343C47.6595 16.6116 47.4068 18.2737 46.9013 19.4206C46.4153 20.5676 45.6669 21.3549 44.656 21.7826C43.6646 22.2103 42.4107 22.4241 40.8943 22.4241ZM40.8943 20.5287C41.6136 20.5287 42.2454 20.4607 42.7898 20.3246C43.3535 20.1885 43.8201 19.9164 44.1894 19.5081C44.5782 19.0999 44.8601 18.4875 45.0351 17.671C45.2295 16.8546 45.3267 15.7756 45.3267 14.4343C45.3267 13.0929 45.2295 12.0237 45.0351 11.2266C44.8601 10.4102 44.5782 9.7978 44.1894 9.38956C43.8201 8.98132 43.3535 8.70916 42.7898 8.57308C42.2454 8.437 41.6136 8.36896 40.8943 8.36896C40.1556 8.36896 39.5141 8.437 38.9698 8.57308C38.4254 8.70916 37.9686 8.98132 37.5992 9.38956C37.2299 9.7978 36.948 10.4102 36.7536 11.2266C36.5592 12.0237 36.462 13.0929 36.462 14.4343C36.462 15.7756 36.5592 16.8546 36.7536 17.671C36.948 18.4875 37.2299 19.0999 37.5992 19.5081C37.9686 19.9164 38.4254 20.1885 38.9698 20.3246C39.5141 20.4607 40.1556 20.5287 40.8943 20.5287Z" fill="white"/>
<path d="M56.7035 22.2492C55.2066 22.2492 54.0888 21.8701 53.35 21.1119C52.6113 20.3343 52.2614 19.0318 52.3003 17.2045L52.3878 8.57308H49.9091V7.08591L52.4169 6.67767L52.796 2.33281H54.5748V6.67767H59.0654V8.57308H54.5748V17.2045C54.5748 18.0987 54.7011 18.7694 54.9538 19.2165C55.2066 19.6442 55.5176 19.9358 55.887 20.0913C56.2563 20.2468 56.6063 20.344 56.9367 20.3829L58.8321 20.5579V22.2492H56.7035Z" fill="white"/>
<path d="M68.4313 22.4241C66.915 22.4241 65.6611 22.2103 64.6696 21.7826C63.6782 21.3355 62.9298 20.5384 62.4243 19.3915C61.9383 18.2251 61.6953 16.5727 61.6953 14.4343C61.6953 12.8013 61.8314 11.4696 62.1036 10.4393C62.3952 9.38956 62.8131 8.5828 63.3574 8.01903C63.9212 7.43583 64.621 7.03731 65.457 6.82347C66.3123 6.59019 67.3038 6.47355 68.4313 6.47355C69.9282 6.47355 71.1723 6.68739 72.1638 7.11507C73.1747 7.54275 73.9328 8.33008 74.4383 9.47704C74.9437 10.624 75.1964 12.2764 75.1964 14.4343C75.1964 16.6116 74.9437 18.2737 74.4383 19.4206C73.9523 20.5676 73.2038 21.3549 72.193 21.7826C71.2015 22.2103 69.9476 22.4241 68.4313 22.4241ZM68.4313 20.5287C69.1506 20.5287 69.7824 20.4607 70.3267 20.3246C70.8905 20.1885 71.357 19.9164 71.7264 19.5081C72.1152 19.0999 72.3971 18.4875 72.572 17.671C72.7664 16.8546 72.8636 15.7756 72.8636 14.4343C72.8636 13.0929 72.7664 12.0237 72.572 11.2266C72.3971 10.4102 72.1152 9.7978 71.7264 9.38956C71.357 8.98132 70.8905 8.70916 70.3267 8.57308C69.7824 8.437 69.1506 8.36896 68.4313 8.36896C67.6926 8.36896 67.0511 8.437 66.5067 8.57308C65.9624 8.70916 65.5056 8.98132 65.1362 9.38956C64.7668 9.7978 64.485 10.4102 64.2906 11.2266C64.0962 12.0237 63.999 13.0929 63.999 14.4343C63.999 15.7756 64.0962 16.8546 64.2906 17.671C64.485 18.4875 64.7668 19.0999 65.1362 19.5081C65.5056 19.9164 65.9624 20.1885 66.5067 20.3246C67.0511 20.4607 67.6926 20.5287 68.4313 20.5287Z" fill="white"/>
<path d="M84.8528 22.395C83.0448 22.395 81.6549 21.9479 80.6829 21.0536C79.7303 20.1399 79.0694 18.8666 78.7 17.2336C78.3501 15.5812 78.1751 13.6567 78.1751 11.4599C78.1751 9.72976 78.282 8.18427 78.4959 6.82347C78.7292 5.46266 79.1277 4.3157 79.6914 3.38257C80.2746 2.43001 81.0814 1.71073 82.1117 1.22473C83.1615 0.719282 84.5029 0.466561 86.1358 0.466561C87.6327 0.466561 88.9449 0.554042 90.0724 0.729002C91.2 0.903963 92.3178 1.13724 93.4259 1.42885V4.7531C92.8038 4.67534 91.8998 4.58786 90.714 4.49066C89.5281 4.39346 88.2645 4.34486 86.9231 4.34486C85.6984 4.34486 84.7653 4.56842 84.1238 5.01554C83.4823 5.46266 83.0449 6.20139 82.8116 7.23171C82.5977 8.26203 82.4908 9.68116 82.4908 11.4891C82.4908 13.3553 82.6074 14.7939 82.8407 15.8048C83.074 16.7962 83.4628 17.4864 84.0071 17.8752C84.5515 18.2445 85.2902 18.4292 86.2233 18.4292C87.0398 18.4292 87.8077 18.3612 88.527 18.2251C89.2462 18.089 89.8294 17.9529 90.2766 17.8168V13.6178H86.3983V10.206C87.0009 10.1283 87.7688 10.0602 88.7019 10.0019C89.6545 9.9436 90.5487 9.91444 91.3847 9.91444C92.0067 9.91444 92.5608 9.92416 93.0468 9.9436C93.5522 9.96304 94.0091 9.98248 94.4173 10.0019V22.2492H91.1805L90.5973 20.7912C90.0336 21.1216 89.2365 21.4716 88.2062 21.8409C87.1759 22.2103 86.0581 22.395 84.8528 22.395Z" fill="white"/>
<path d="M104.653 22.395C102.923 22.395 101.533 22.152 100.483 21.666C99.4333 21.1605 98.6654 20.3246 98.1794 19.1582C97.7129 17.9918 97.4796 16.3977 97.4796 14.3759C97.4796 12.2375 97.7226 10.5948 98.2086 9.44788C98.6946 8.28148 99.4625 7.47471 100.512 7.02759C101.562 6.58047 102.942 6.35691 104.653 6.35691C106.383 6.35691 107.773 6.59019 108.823 7.05675C109.892 7.52331 110.66 8.33979 111.127 9.5062C111.613 10.6726 111.856 12.2959 111.856 14.3759C111.856 16.456 111.622 18.0793 111.156 19.2457C110.689 20.4121 109.931 21.2286 108.881 21.6951C107.831 22.1617 106.422 22.395 104.653 22.395ZM104.653 18.9541C105.333 18.9541 105.887 18.8569 106.315 18.6625C106.743 18.4681 107.054 18.0501 107.248 17.4086C107.443 16.7476 107.54 15.7367 107.54 14.3759C107.54 12.9957 107.443 11.9848 107.248 11.3433C107.054 10.7018 106.743 10.2838 106.315 10.0894C105.887 9.895 105.333 9.7978 104.653 9.7978C103.973 9.7978 103.419 9.895 102.991 10.0894C102.583 10.2838 102.281 10.7018 102.087 11.3433C101.892 11.9848 101.795 12.9957 101.795 14.3759C101.795 15.7367 101.892 16.7476 102.087 17.4086C102.281 18.0501 102.583 18.4681 102.991 18.6625C103.419 18.8569 103.973 18.9541 104.653 18.9541Z" fill="white"/>
</svg>
