<svg width="87" height="16" viewBox="0 0 87 16" fill="none" xmlns="http://www.w3.org/2000/svg">
<circle cx="83.866" cy="8.40905" r="3.13397" fill="#B5B5B5"/>
<path d="M0 15.3038V0.541549H5.87682C6.30471 0.541549 6.73928 0.601721 7.18055 0.722065C7.63518 0.84241 8.05639 1.06304 8.44416 1.38396C8.83194 1.70488 9.13949 2.17957 9.3668 2.80804C9.60749 3.42313 9.72784 4.2388 9.72784 5.25504C9.72784 6.28465 9.60081 7.12037 9.34675 7.76221C9.10606 8.40405 8.78514 8.8988 8.38399 9.24646C7.99621 9.58075 7.57501 9.80807 7.12038 9.92841C6.66574 10.0488 6.22448 10.1089 5.79659 10.1089C5.59601 10.1089 5.30184 10.1022 4.91406 10.0889C4.52629 10.0755 4.11177 10.0621 3.6705 10.0488C3.24261 10.022 2.84146 9.99527 2.46706 9.96852C2.09265 9.94178 1.80517 9.92172 1.60459 9.90835V15.3038H0ZM1.60459 8.68485H5.59601C6.06402 8.68485 6.48522 8.58457 6.85963 8.38399C7.24741 8.18342 7.55495 7.83576 7.78227 7.34101C8.00959 6.84626 8.12324 6.15762 8.12324 5.2751C8.12324 4.40594 8.00959 3.73736 7.78227 3.26936C7.56832 2.78798 7.28083 2.45369 6.9198 2.26649C6.55877 2.07928 6.16431 1.98568 5.73641 1.98568H1.60459V8.68485Z" fill="url(#paint0_linear_115_69)"/>
<path d="M12.0849 15.3038V0H13.6694V5.77653C14.1642 5.42887 14.7525 5.11464 15.4345 4.83383C16.1298 4.55303 16.8519 4.41263 17.6007 4.41263C18.3495 4.41263 18.9646 4.57977 19.446 4.91406C19.9407 5.23498 20.3017 5.66956 20.5291 6.21779C20.7697 6.75266 20.8901 7.34769 20.8901 8.0029V15.3038H19.3056V8.18342C19.3056 7.51484 19.105 6.95992 18.7038 6.51865C18.3027 6.07739 17.7611 5.85676 17.0792 5.85676C16.3839 5.85676 15.7821 5.95036 15.274 6.13756C14.7659 6.32477 14.231 6.57883 13.6694 6.89974V15.3038H12.0849Z" fill="url(#paint1_linear_115_69)"/>
<path d="M28.1286 15.4241C27.0856 15.4241 26.2232 15.2771 25.5412 14.9829C24.8593 14.6753 24.3445 14.1271 23.9968 13.3382C23.6625 12.5359 23.4954 11.3993 23.4954 9.92841C23.4954 8.8052 23.589 7.88924 23.7762 7.18055C23.9767 6.45848 24.2642 5.90356 24.6386 5.51578C25.0264 5.11464 25.5078 4.84052 26.0828 4.69343C26.6711 4.53297 27.3531 4.45274 28.1286 4.45274C29.1582 4.45274 30.014 4.59983 30.696 4.894C31.3913 5.18818 31.9128 5.72973 32.2604 6.51865C32.6081 7.30758 32.7819 8.44416 32.7819 9.92841C32.7819 11.426 32.6081 12.5693 32.2604 13.3582C31.9261 14.1472 31.4113 14.6887 30.716 14.9829C30.0341 15.2771 29.1716 15.4241 28.1286 15.4241ZM28.1286 14.1204C28.6234 14.1204 29.0579 14.0736 29.4323 13.98C29.8201 13.8864 30.141 13.6992 30.3951 13.4184C30.6625 13.1376 30.8564 12.7164 30.9768 12.1548C31.1105 11.5932 31.1773 10.8511 31.1773 9.92841C31.1773 9.00577 31.1105 8.27033 30.9768 7.7221C30.8564 7.16049 30.6625 6.73929 30.3951 6.45848C30.141 6.17768 29.8201 5.99048 29.4323 5.89687C29.0579 5.80327 28.6234 5.75647 28.1286 5.75647C27.6205 5.75647 27.1792 5.80327 26.8048 5.89687C26.4304 5.99048 26.1162 6.17768 25.8621 6.45848C25.6081 6.73929 25.4142 7.16049 25.2805 7.7221C25.1467 8.27033 25.0799 9.00577 25.0799 9.92841C25.0799 10.8511 25.1467 11.5932 25.2805 12.1548C25.4142 12.7164 25.6081 13.1376 25.8621 13.4184C26.1162 13.6992 26.4304 13.8864 26.8048 13.98C27.1792 14.0736 27.6205 14.1204 28.1286 14.1204Z" fill="url(#paint2_linear_115_69)"/>
<path d="M39.0027 15.3038C37.9731 15.3038 37.2042 15.043 36.6961 14.5216C36.188 13.9867 35.9473 13.0908 35.974 11.8339L36.0342 5.89687H34.3293V4.87395L36.0543 4.59314L36.315 1.60459H37.5385V4.59314H40.6274V5.89687H37.5385V11.8339C37.5385 12.449 37.6254 12.9103 37.7993 13.2178C37.9731 13.512 38.187 13.7126 38.4411 13.8195C38.6952 13.9265 38.9358 13.9934 39.1632 14.0201L40.4669 14.1405V15.3038H39.0027Z" fill="url(#paint3_linear_115_69)"/>
<path d="M47.0695 15.4241C46.0266 15.4241 45.1641 15.2771 44.4821 14.9829C43.8002 14.6753 43.2854 14.1271 42.9377 13.3382C42.6034 12.5359 42.4363 11.3993 42.4363 9.92841C42.4363 8.8052 42.5299 7.88924 42.7171 7.18055C42.9177 6.45848 43.2051 5.90356 43.5795 5.51578C43.9673 5.11464 44.4487 4.84052 45.0237 4.69343C45.612 4.53297 46.294 4.45274 47.0695 4.45274C48.0991 4.45274 48.9549 4.59983 49.6369 4.894C50.3322 5.18818 50.8537 5.72973 51.2014 6.51865C51.549 7.30758 51.7229 8.44416 51.7229 9.92841C51.7229 11.426 51.549 12.5693 51.2014 13.3582C50.8671 14.1472 50.3523 14.6887 49.6569 14.9829C48.975 15.2771 48.1125 15.4241 47.0695 15.4241ZM47.0695 14.1204C47.5643 14.1204 47.9989 14.0736 48.3733 13.98C48.761 13.8864 49.082 13.6992 49.336 13.4184C49.6035 13.1376 49.7973 12.7164 49.9177 12.1548C50.0514 11.5932 50.1183 10.8511 50.1183 9.92841C50.1183 9.00577 50.0514 8.27033 49.9177 7.7221C49.7973 7.16049 49.6035 6.73929 49.336 6.45848C49.082 6.17768 48.761 5.99048 48.3733 5.89687C47.9989 5.80327 47.5643 5.75647 47.0695 5.75647C46.5614 5.75647 46.1202 5.80327 45.7458 5.89687C45.3713 5.99048 45.0571 6.17768 44.803 6.45848C44.549 6.73929 44.3551 7.16049 44.2214 7.7221C44.0877 8.27033 44.0208 9.00577 44.0208 9.92841C44.0208 10.8511 44.0877 11.5932 44.2214 12.1548C44.3551 12.7164 44.549 13.1376 44.803 13.4184C45.0571 13.6992 45.3713 13.8864 45.7458 13.98C46.1202 14.0736 46.5614 14.1204 47.0695 14.1204Z" fill="url(#paint4_linear_115_69)"/>
<path d="M58.3648 15.4041C57.1213 15.4041 56.1652 15.0965 55.4966 14.4814C54.8414 13.853 54.3868 12.9771 54.1327 11.8539C53.892 10.7173 53.7717 9.39355 53.7717 7.88256C53.7717 6.69248 53.8452 5.62944 53.9923 4.69343C54.1528 3.75742 54.4269 2.96849 54.8147 2.32666C55.2158 1.67145 55.7707 1.1767 56.4794 0.842411C57.2015 0.494749 58.1241 0.320918 59.2474 0.320918C60.277 0.320918 61.1795 0.38109 61.9551 0.501434C62.7307 0.621779 63.4995 0.782238 64.2617 0.982812V3.26936C63.8338 3.21587 63.212 3.1557 62.3964 3.08884C61.5807 3.02198 60.7115 2.98855 59.7889 2.98855C58.9465 2.98855 58.3047 3.14233 57.8634 3.44987C57.4221 3.75742 57.1213 4.26554 56.9608 4.97423C56.8137 5.68293 56.7402 6.65906 56.7402 7.90261C56.7402 9.18629 56.8204 10.1758 56.9809 10.8711C57.1413 11.5531 57.4088 12.0278 57.7832 12.2952C58.1576 12.5492 58.6657 12.6763 59.3075 12.6763C59.8691 12.6763 60.3973 12.6295 60.8921 12.5359C61.3868 12.4423 61.788 12.3487 62.0955 12.2551V9.3668H59.4279V7.02009C59.8424 6.9666 60.3706 6.9198 61.0124 6.87969C61.6676 6.83957 62.2827 6.81952 62.8577 6.81952C63.2856 6.81952 63.6667 6.8262 64.001 6.83957C64.3486 6.85294 64.6628 6.86631 64.9436 6.87969V15.3038H62.7173L62.3161 14.3009C61.9284 14.5282 61.3801 14.7689 60.6714 15.023C59.9627 15.2771 59.1939 15.4041 58.3648 15.4041Z" fill="url(#paint5_linear_115_69)"/>
<path d="M71.9841 15.4041C70.794 15.4041 69.838 15.2369 69.1159 14.9026C68.3938 14.555 67.8657 13.98 67.5314 13.1777C67.2104 12.3754 67.05 11.2789 67.05 9.8883C67.05 8.41742 67.2171 7.28752 67.5514 6.4986C67.8857 5.6963 68.4139 5.14138 69.136 4.83383C69.858 4.52629 70.8074 4.37251 71.9841 4.37251C73.1742 4.37251 74.1302 4.53297 74.8523 4.85389C75.5878 5.17481 76.1159 5.73641 76.4369 6.53871C76.7711 7.34101 76.9383 8.45754 76.9383 9.8883C76.9383 11.3191 76.7778 12.4356 76.4569 13.2379C76.136 14.0402 75.6145 14.6018 74.8924 14.9227C74.1704 15.2436 73.2009 15.4041 71.9841 15.4041ZM71.9841 13.0373C72.4521 13.0373 72.8332 12.9704 73.1274 12.8367C73.4216 12.703 73.6355 12.4155 73.7692 11.9743C73.9029 11.5196 73.9698 10.8243 73.9698 9.8883C73.9698 8.93891 73.9029 8.24359 73.7692 7.80233C73.6355 7.36106 73.4216 7.07357 73.1274 6.93986C72.8332 6.80614 72.4521 6.73928 71.9841 6.73928C71.5161 6.73928 71.135 6.80614 70.8408 6.93986C70.56 7.07357 70.3528 7.36106 70.2191 7.80233C70.0853 8.24359 70.0185 8.93891 70.0185 9.8883C70.0185 10.8243 70.0853 11.5196 70.2191 11.9743C70.3528 12.4155 70.56 12.703 70.8408 12.8367C71.135 12.9704 71.5161 13.0373 71.9841 13.0373Z" fill="url(#paint6_linear_115_69)"/>
<defs>
<linearGradient id="paint0_linear_115_69" x1="0" y1="0" x2="0" y2="15.4241" gradientUnits="userSpaceOnUse">
<stop stop-color="#1C1C1C"/>
<stop offset="1" stop-color="#10243E"/>
</linearGradient>
<linearGradient id="paint1_linear_115_69" x1="0" y1="0" x2="0" y2="15.4241" gradientUnits="userSpaceOnUse">
<stop stop-color="#1C1C1C"/>
<stop offset="1" stop-color="#10243E"/>
</linearGradient>
<linearGradient id="paint2_linear_115_69" x1="0" y1="0" x2="0" y2="15.4241" gradientUnits="userSpaceOnUse">
<stop stop-color="#1C1C1C"/>
<stop offset="1" stop-color="#10243E"/>
</linearGradient>
<linearGradient id="paint3_linear_115_69" x1="0" y1="0" x2="0" y2="15.4241" gradientUnits="userSpaceOnUse">
<stop stop-color="#1C1C1C"/>
<stop offset="1" stop-color="#10243E"/>
</linearGradient>
<linearGradient id="paint4_linear_115_69" x1="0" y1="0" x2="0" y2="15.4241" gradientUnits="userSpaceOnUse">
<stop stop-color="#1C1C1C"/>
<stop offset="1" stop-color="#10243E"/>
</linearGradient>
<linearGradient id="paint5_linear_115_69" x1="0" y1="0" x2="0" y2="15.4241" gradientUnits="userSpaceOnUse">
<stop stop-color="#1C1C1C"/>
<stop offset="1" stop-color="#10243E"/>
</linearGradient>
<linearGradient id="paint6_linear_115_69" x1="0" y1="0" x2="0" y2="15.4241" gradientUnits="userSpaceOnUse">
<stop stop-color="#1C1C1C"/>
<stop offset="1" stop-color="#10243E"/>
</linearGradient>
</defs>
</svg>
